<svg width="22" height="25" viewBox="0 0 22 25" fill="none" xmlns="http://www.w3.org/2000/svg">
<path d="M2.89006 25.0051C2.40006 25.0051 1.91006 24.8781 1.46106 24.6221C1.0151 24.3724 0.644305 24.0076 0.387331 23.5658C0.130358 23.1239 -0.00337862 22.6213 6.48557e-05 22.1101V2.89514C6.48557e-05 1.84214 0.546065 0.903142 1.46106 0.383142C2.37506 -0.137858 3.46106 -0.126859 4.36606 0.412141L20.5081 10.0201C21.3911 10.5461 21.9191 11.4741 21.9191 12.5031C21.9191 13.5321 21.3911 14.4601 20.5081 14.9861L4.36706 24.5941C3.92083 24.8619 3.41046 25.0039 2.89006 25.0051ZM2.89406 2.00314C2.73805 2.00452 2.58494 2.04546 2.44906 2.12214C2.31132 2.19843 2.19677 2.31055 2.11755 2.44663C2.03833 2.58271 1.99739 2.73769 1.99906 2.89514V22.1111C1.99906 22.5781 2.31306 22.8071 2.44906 22.8841C2.58517 22.9636 2.74023 23.0047 2.89781 23.0031C3.05538 23.0015 3.20958 22.9573 3.34406 22.8751L19.4851 13.2671C19.8771 13.0341 19.9201 12.6551 19.9201 12.5031C19.9201 12.3511 19.8781 11.9721 19.4851 11.7391L3.34306 2.13114C3.20811 2.04779 3.05269 2.00348 2.89406 2.00314Z" fill="#FCFBFB"/>
</svg>
