<svg width="97" height="83" viewBox="0 0 97 83" fill="none" xmlns="http://www.w3.org/2000/svg">
<circle cx="7.3726" cy="7.3726" r="7.3726" transform="matrix(4.37114e-08 -1 -1 -4.37114e-08 97 14.7454)" fill="url(#paint0_linear_6_23)"/>
<circle cx="7.3726" cy="7.3726" r="7.3726" transform="matrix(4.37114e-08 -1 -1 -4.37114e-08 97 37.4302)" fill="url(#paint1_linear_6_23)"/>
<circle cx="7.3726" cy="7.3726" r="7.3726" transform="matrix(4.37114e-08 -1 -1 -4.37114e-08 69.7783 14.7454)" fill="url(#paint2_linear_6_23)"/>
<circle cx="7.3726" cy="7.3726" r="7.3726" transform="matrix(4.37114e-08 -1 -1 -4.37114e-08 69.7783 37.4302)" fill="url(#paint3_linear_6_23)"/>
<circle cx="7.3726" cy="7.3726" r="7.3726" transform="matrix(4.37114e-08 -1 -1 -4.37114e-08 69.7783 60.115)" fill="url(#paint4_linear_6_23)"/>
<circle cx="7.3726" cy="7.3726" r="7.3726" transform="matrix(4.37114e-08 -1 -1 -4.37114e-08 42.5562 14.7454)" fill="url(#paint5_linear_6_23)"/>
<circle cx="7.3726" cy="7.3726" r="7.3726" transform="matrix(4.37114e-08 -1 -1 -4.37114e-08 42.5562 37.4302)" fill="url(#paint6_linear_6_23)"/>
<circle cx="7.3726" cy="7.3726" r="7.3726" transform="matrix(4.37114e-08 -1 -1 -4.37114e-08 15.334 14.7454)" fill="url(#paint7_linear_6_23)"/>
<circle cx="7.3726" cy="7.3726" r="7.3726" transform="matrix(4.37114e-08 -1 -1 -4.37114e-08 97 82.8)" fill="url(#paint8_linear_6_23)"/>
<circle cx="7.3726" cy="7.3726" r="7.3726" transform="matrix(4.37114e-08 -1 -1 -4.37114e-08 97 60.115)" fill="url(#paint9_linear_6_23)"/>
<defs>
<linearGradient id="paint0_linear_6_23" x1="7.3726" y1="-6.67348" x2="7.3726" y2="14.7452" gradientUnits="userSpaceOnUse">
<stop stop-color="#D9D9D9"/>
<stop offset="1" stop-color="#D9D9D9" stop-opacity="0"/>
</linearGradient>
<linearGradient id="paint1_linear_6_23" x1="7.3726" y1="-6.67348" x2="7.3726" y2="14.7452" gradientUnits="userSpaceOnUse">
<stop stop-color="#D9D9D9"/>
<stop offset="1" stop-color="#D9D9D9" stop-opacity="0"/>
</linearGradient>
<linearGradient id="paint2_linear_6_23" x1="7.3726" y1="-6.67348" x2="7.3726" y2="14.7452" gradientUnits="userSpaceOnUse">
<stop stop-color="#D9D9D9"/>
<stop offset="1" stop-color="#D9D9D9" stop-opacity="0"/>
</linearGradient>
<linearGradient id="paint3_linear_6_23" x1="7.3726" y1="-6.67348" x2="7.3726" y2="14.7452" gradientUnits="userSpaceOnUse">
<stop stop-color="#D9D9D9"/>
<stop offset="1" stop-color="#D9D9D9" stop-opacity="0"/>
</linearGradient>
<linearGradient id="paint4_linear_6_23" x1="7.3726" y1="-6.67348" x2="7.3726" y2="14.7452" gradientUnits="userSpaceOnUse">
<stop stop-color="#D9D9D9"/>
<stop offset="1" stop-color="#D9D9D9" stop-opacity="0"/>
</linearGradient>
<linearGradient id="paint5_linear_6_23" x1="7.3726" y1="-6.67348" x2="7.3726" y2="14.7452" gradientUnits="userSpaceOnUse">
<stop stop-color="#D9D9D9"/>
<stop offset="1" stop-color="#D9D9D9" stop-opacity="0"/>
</linearGradient>
<linearGradient id="paint6_linear_6_23" x1="7.3726" y1="-6.67348" x2="7.3726" y2="14.7452" gradientUnits="userSpaceOnUse">
<stop stop-color="#D9D9D9"/>
<stop offset="1" stop-color="#D9D9D9" stop-opacity="0"/>
</linearGradient>
<linearGradient id="paint7_linear_6_23" x1="7.3726" y1="-6.67348" x2="7.3726" y2="14.7452" gradientUnits="userSpaceOnUse">
<stop stop-color="#D9D9D9"/>
<stop offset="1" stop-color="#D9D9D9" stop-opacity="0"/>
</linearGradient>
<linearGradient id="paint8_linear_6_23" x1="7.3726" y1="-6.67348" x2="7.3726" y2="14.7452" gradientUnits="userSpaceOnUse">
<stop stop-color="#D9D9D9"/>
<stop offset="1" stop-color="#D9D9D9" stop-opacity="0"/>
</linearGradient>
<linearGradient id="paint9_linear_6_23" x1="7.3726" y1="-6.67348" x2="7.3726" y2="14.7452" gradientUnits="userSpaceOnUse">
<stop stop-color="#D9D9D9"/>
<stop offset="1" stop-color="#D9D9D9" stop-opacity="0"/>
</linearGradient>
</defs>
</svg>
