<svg width="32" height="33" viewBox="0 0 32 33" fill="none" xmlns="http://www.w3.org/2000/svg">
<path d="M13.3331 31.0237C13.333 30.7904 13.2825 30.5601 13.1852 30.3489C13.0878 30.1376 12.9459 29.9508 12.7695 29.8016C12.5932 29.6523 12.3867 29.5443 12.1647 29.4852C11.9427 29.4261 11.7107 29.4174 11.485 29.4596C9.43676 29.8417 6.85068 29.8992 6.16308 27.9359C5.56352 26.4155 4.57039 25.0882 3.28898 24.0949C3.19755 24.0444 3.11041 23.9862 3.02846 23.921C2.91631 23.6203 2.71712 23.3612 2.45715 23.1779C2.19719 22.9946 1.88867 22.8957 1.5723 22.8943H1.56466C1.15097 22.8941 0.754066 23.0606 0.460827 23.3572C0.167587 23.6539 0.0018966 24.0565 2.19378e-05 24.477C-0.00609581 25.7739 1.26895 26.6049 1.78622 26.886C2.39618 27.509 2.8864 28.2423 3.23168 29.0481C3.80161 30.6758 5.45793 33.1454 10.2191 32.8271C10.2206 32.883 10.2221 32.9358 10.2229 32.9839L10.2298 33.4095C10.2298 33.8313 10.3946 34.2359 10.688 34.5342C10.9815 34.8324 11.3794 35 11.7944 35C12.2094 35 12.6074 34.8324 12.9008 34.5342C13.1942 34.2359 13.3591 33.8313 13.3591 33.4095L13.3514 32.9032C13.3438 32.6018 13.3331 32.1653 13.3331 31.0237ZM30.0231 6.96609C30.0728 6.76728 30.1217 6.54673 30.1645 6.29822C30.4175 4.52577 30.1969 2.71676 29.5258 1.06077C29.4411 0.844881 29.311 0.650435 29.1445 0.491062C28.9781 0.331689 28.7794 0.211247 28.5624 0.138178C28.0054 -0.0528709 25.9488 -0.428749 22.0158 2.12628C18.7465 1.34423 15.3433 1.34423 12.0741 2.12628C8.15709 -0.391325 6.11113 -0.04969 5.55954 0.13048C5.33714 0.200589 5.133 0.320394 4.96208 0.481114C4.79115 0.641834 4.65776 0.839396 4.5717 1.05932C3.88686 2.74711 3.66865 4.59301 3.94065 6.39767C3.97886 6.60114 4.0201 6.78909 4.06289 6.96148C2.7667 8.71648 2.07628 10.8571 2.09869 13.0516C2.09447 13.5412 2.11666 14.0307 2.16516 14.5178C2.68775 21.8381 7.38167 24.0359 10.6523 24.7907C10.5843 24.9895 10.5224 25.2023 10.4674 25.4275C10.3693 25.8368 10.4349 26.2688 10.6498 26.6289C10.8647 26.9891 11.2113 27.2479 11.6136 27.3486C12.0159 27.4494 12.4411 27.3838 12.7959 27.1664C13.1508 26.9489 13.4063 26.5973 13.5065 26.1886C13.6061 25.6587 13.8612 25.1718 14.2384 24.7923C14.4665 24.5893 14.6316 24.3234 14.7137 24.0268C14.7958 23.7302 14.7913 23.4157 14.7008 23.1216C14.6103 22.8276 14.4377 22.5666 14.204 22.3704C13.9702 22.1742 13.6855 22.0514 13.3843 22.0167C7.97985 21.3892 5.63364 19.151 5.28069 14.2258C5.24159 13.8357 5.22399 13.4437 5.22797 13.0516C5.20287 11.4876 5.71118 9.96302 6.66655 8.73681C6.76255 8.60897 6.86479 8.48611 6.97291 8.36869C7.16447 8.1508 7.29327 7.88347 7.34516 7.59605C7.39705 7.30862 7.37003 7.01222 7.26706 6.73939C7.1615 6.45235 7.08023 6.15669 7.02412 5.85561C6.89665 4.99948 6.93846 4.1261 7.1471 3.2866C8.50698 3.67702 9.78683 4.31252 10.9257 5.16286C11.114 5.29037 11.3272 5.37523 11.5506 5.41168C11.774 5.44812 12.0025 5.43531 12.2207 5.3741C15.383 4.50172 18.7169 4.50227 21.879 5.37569C22.0983 5.43683 22.328 5.44892 22.5524 5.41111C22.7767 5.3733 22.9903 5.28651 23.1785 5.1567C24.312 4.30283 25.5865 3.66164 26.9419 3.26334C27.1496 4.08269 27.1961 4.93567 27.0786 5.77331C27.022 6.1034 26.9334 6.427 26.8143 6.73942C26.7113 7.01225 26.6843 7.30865 26.7362 7.59608C26.7881 7.8835 26.9169 8.15083 27.1084 8.36872C27.2292 8.50695 27.3499 8.65606 27.4583 8.79585C28.407 10.0013 28.9067 11.5084 28.8695 13.0516C28.8723 13.4645 28.8527 13.8772 28.8106 14.2879C28.4661 19.1479 26.1107 21.3876 20.6811 22.0167C20.3798 22.0515 20.095 22.1747 19.8613 22.371C19.6276 22.5674 19.4551 22.8285 19.3647 23.1227C19.2743 23.4169 19.2699 23.7315 19.3521 24.0282C19.4343 24.3248 19.5995 24.5908 19.8277 24.7938C20.2167 25.1835 20.4725 25.6898 20.5573 26.2383C20.6631 26.6641 20.7116 27.1024 20.7017 27.5414V31.2536C20.6864 32.2834 20.6864 33.0553 20.6864 33.4094C20.6864 33.8312 20.8513 34.2358 21.1447 34.5341C21.4381 34.8323 21.8361 34.9999 22.251 34.9999C22.666 34.9999 23.064 34.8323 23.3574 34.5341C23.6508 34.2358 23.8157 33.8312 23.8157 33.4094C23.8157 33.0646 23.8157 32.3082 23.831 31.2784V27.5414C23.8436 26.8382 23.7621 26.1364 23.5888 25.4555C23.5392 25.2319 23.4785 25.0111 23.407 24.7938C25.7872 24.3919 27.9498 23.1444 29.51 21.2735C31.0702 19.4025 31.9267 17.0295 31.9269 14.5768C31.9785 14.0702 32.0025 13.561 31.9988 13.0516C32.0335 10.8548 31.3373 8.71039 30.0231 6.96609Z" fill="white"/>
</svg>
