<svg width="40" height="39" viewBox="0 0 40 39" fill="none" xmlns="http://www.w3.org/2000/svg">
<path d="M10.0637 13.8751C10.0633 13.8751 10.0641 13.8751 10.0637 13.8751H2.56257C2.04507 13.8747 1.62542 14.294 1.62507 14.8114C1.62507 14.8111 1.62507 14.8119 1.62507 14.8114V37.3126C1.62473 37.8301 2.04404 38.2497 2.56143 38.2501C2.56109 38.2501 2.56189 38.2501 2.56143 38.2501H10.0626C10.5801 38.2504 10.9997 37.8311 11.0001 37.3136C11.0001 37.3132 11.0001 37.3139 11.0001 37.3136V14.8126C11.0004 14.2951 10.5811 13.8754 10.0637 13.8751ZM9.12507 36.3751H3.50007V15.7501H9.12507V36.3751ZM29.7501 13.8751C27.716 13.8752 25.7388 14.5465 24.1251 15.7848V14.8126C24.1254 14.2951 23.7061 13.8754 23.1887 13.8751C23.1883 13.8751 23.1891 13.8751 23.1887 13.8751H15.6876C15.1701 13.8747 14.7504 14.294 14.7501 14.8114C14.7501 14.8111 14.7501 14.8119 14.7501 14.8114V37.3126C14.7497 37.8301 15.169 38.2497 15.6865 38.2501C15.6862 38.2501 15.6869 38.2501 15.6865 38.2501H23.1876C23.7051 38.2504 24.1247 37.8311 24.1251 37.3136C24.1251 37.3132 24.1251 37.3139 24.1251 37.3136V27.0001C24.1251 25.4468 25.3843 24.1876 26.9376 24.1876C28.4909 24.1876 29.7501 25.4468 29.7501 27.0001V37.3126C29.7497 37.8301 30.169 38.2497 30.6865 38.2501C30.6862 38.2501 30.6869 38.2501 30.6865 38.2501H38.1876C38.7051 38.2504 39.1247 37.8311 39.1251 37.3136C39.1251 37.3132 39.1251 37.3139 39.1251 37.3136V23.2501C39.119 18.0749 34.9252 13.8811 29.7501 13.8751ZM37.2501 36.3751H31.6251V27.0001C31.6251 24.4112 29.5265 22.3126 26.9376 22.3126C24.3487 22.3126 22.2501 24.4112 22.2501 27.0001V36.3751H16.6251V15.7501H22.2501V18.0059C22.2501 18.4043 22.5021 18.7591 22.8782 18.8903C23.2535 19.0256 23.6733 18.9053 23.9201 18.5919C26.4749 15.3541 31.1706 14.8005 34.4084 17.3554C36.2119 18.7786 37.26 20.9527 37.2501 23.2501V36.3751ZM7.00254 0.75349C6.78201 0.738041 6.56068 0.736896 6.34004 0.750057C3.51014 0.556766 1.05939 2.69418 0.866102 5.52407C0.85832 5.63794 0.854429 5.75193 0.8542 5.86602C0.829824 8.67189 3.08465 10.9662 5.89052 10.9906C6.00507 10.9916 6.11951 10.9886 6.23384 10.9819H6.28694C9.11146 11.1795 11.5613 9.05 11.7589 6.22548C11.9566 3.40097 9.82705 0.95113 7.00254 0.75349ZM6.93776 9.11226C6.72124 9.13217 6.50312 9.13045 6.28694 9.10688H6.23384C4.44112 9.24466 2.87626 7.90319 2.73847 6.11047C2.60068 4.31787 3.94216 2.75289 5.73488 2.6151C5.93652 2.59965 6.13908 2.60297 6.34004 2.62506C8.13138 2.46003 9.71742 3.77839 9.88256 5.56974C10.0476 7.36119 8.72922 8.94723 6.93776 9.11226Z" fill="white"/>
</svg>
