<svg width="288" height="130" viewBox="0 0 288 130" fill="none" xmlns="http://www.w3.org/2000/svg">
<path d="M115.643 111.94C114.974 110.815 114.11 110.239 112.741 110.239C111.302 110.239 109.721 111.221 109.721 112.807C109.721 114.218 111.108 114.958 112.236 115.387L113.528 115.897C116.101 116.896 118.017 118.312 118.017 121.33C118.017 124.611 115.479 126.966 112.236 126.966C109.316 126.966 107.037 124.809 106.649 121.906L108.928 121.429C108.905 123.415 110.485 124.853 112.43 124.853C114.374 124.853 115.761 123.223 115.761 121.33C115.761 119.387 114.204 118.553 112.647 117.905L111.402 117.379C109.34 116.495 107.46 115.321 107.46 112.807C107.46 109.882 110.056 108.132 112.788 108.132C114.803 108.132 116.46 109.114 117.441 110.865L115.643 111.94Z" fill="#FCFBFB"/>
<path d="M125.36 126.578H123.105V110.576H118.816V108.513H129.655V110.576H125.36V126.578Z" fill="#FCFBFB"/>
<path d="M133.372 108.515V119.172C133.372 122.125 134.259 124.852 137.737 124.852C141.215 124.852 142.102 122.125 142.102 119.172V108.515H144.358V119.94C144.358 123.919 141.885 126.965 137.737 126.965C133.59 126.965 131.116 123.919 131.116 119.94V108.515H133.372Z" fill="#FCFBFB"/>
<path d="M149.544 124.518H150.337C154.937 124.518 158.92 122.795 158.92 117.549C158.92 112.275 154.937 110.574 150.337 110.574H149.544V124.518ZM147.288 108.516H151.03C156.576 108.516 161.176 111.435 161.176 117.45C161.176 123.607 156.664 126.576 150.954 126.576H147.288V108.516Z" fill="#FCFBFB"/>
<path d="M165.619 126.581H163.363V108.515H165.619V126.581Z" fill="#FCFBFB"/>
<path d="M184.42 117.546C184.42 113.568 181.448 110.236 177.2 110.236C172.959 110.236 169.986 113.568 169.986 117.546C169.986 121.667 173.293 124.856 177.2 124.856C181.113 124.856 184.42 121.667 184.42 117.546ZM186.676 117.546C186.676 122.913 182.435 126.958 177.2 126.958C171.972 126.958 167.73 122.913 167.73 117.546C167.73 112.371 172.024 108.135 177.2 108.135C182.382 108.135 186.676 112.371 186.676 117.546Z" fill="#FCFBFB"/>
<path d="M212.271 117.475V118.193C212.271 123.154 208.769 126.963 203.711 126.963C198.647 126.963 194.57 122.6 194.57 117.595C194.57 112.398 198.747 108.129 203.946 108.129C206.754 108.129 209.539 109.397 211.313 111.63L209.733 113.139C208.434 111.367 206.249 110.192 204.046 110.192C199.992 110.192 196.826 113.474 196.826 117.518C196.826 121.311 199.945 124.899 203.852 124.899C206.66 124.899 209.68 122.485 209.774 119.532H205.097V117.475H212.271Z" fill="#FCFBFB"/>
<path d="M225.178 115.797V108.515H227.434V126.575H225.178V117.91H216.572V126.575H214.316V108.515H216.572V115.797H225.178Z" fill="#FCFBFB"/>
<path d="M232.886 126.581H230.63V108.515H232.886V126.581Z" fill="#FCFBFB"/>
<path d="M238.328 124.565H240.055C242.141 124.565 244.32 123.945 244.32 121.377C244.32 118.842 241.736 118.309 239.721 118.309H238.328V124.565ZM238.328 116.52H238.904C241.042 116.52 242.787 116.087 242.787 113.497C242.787 110.956 241.06 110.528 238.951 110.528H238.328V116.52ZM236.072 108.514H238.281C241.683 108.514 244.896 109.397 244.896 113.475C244.896 114.786 244.179 116.323 242.952 116.899V116.943C245.09 117.332 246.576 119.412 246.576 121.52C246.576 125.142 243.486 126.579 240.296 126.579H236.072V108.514Z" fill="#FCFBFB"/>
<path d="M251.355 124.518H256.848V126.576H249.099V108.516H251.355V124.518Z" fill="#FCFBFB"/>
<path d="M260.509 126.581H258.253V108.515H260.509V126.581Z" fill="#FCFBFB"/>
<path d="M81.7627 96.4769C87.3203 94.441 93.5417 88.8874 96.2852 81.3911H83.1961V78.6527H100.11C99.7807 80.0576 98.8525 84.2063 95.2747 89.0849C96.7611 90.2703 100.439 93.2556 103.787 96.5483L101.414 98.9409C100.386 97.7336 98.5529 95.5934 93.5652 91.2471C91.8086 93.2556 88.3072 96.883 83.5016 98.8367L81.7627 96.4769Z" fill="#FCFBFB"/>
<path d="M112.515 86.143C113.596 86.5985 115.711 87.504 118.355 89.7101C120.57 86.8729 121.145 84.1784 121.375 83.1522H112.568C110.071 86.5985 107.933 88.0802 105.947 89.2326L104.062 87.1199C108.462 84.8315 110.753 81.7967 112.486 77.2913L115.535 77.8675C115.053 78.9266 114.754 79.5797 114.201 80.54H124.923C124.265 84.4802 122.103 96.021 107.257 99.4728L105.648 96.9813C107.351 96.7015 111.634 95.999 116.34 91.8503C113.825 89.6387 111.534 88.5576 110.547 88.0802L112.515 86.143Z" fill="#FCFBFB"/>
<path d="M126.844 95.6465C136.331 94.8673 140.638 91.9972 143.904 81.9711L146.63 83.1784C143.205 92.7051 138.952 97.3807 127.549 98.6648L126.844 95.6465ZM145.743 80.5881C145.167 78.3217 144.685 77.2955 144.433 76.7412L146.477 76.2857C147.182 77.74 147.658 79.4028 147.834 80.0064L145.743 80.5881ZM142.071 81.115C141.719 79.4028 141.395 78.3985 140.884 77.065L142.952 76.615C143.581 78.1241 143.81 78.7772 144.233 80.6101L142.071 81.115ZM132.483 89.4399C129.564 87.8484 126.644 86.8991 125.41 86.5204L126.562 83.9082C127.502 84.1771 131.25 85.2911 133.641 86.5972L132.483 89.4399ZM134.422 83.6064C131.925 82.3442 129.564 81.4936 127.396 80.8625L128.606 78.2229C132.401 79.3534 134.293 80.2095 135.703 80.8625L134.422 83.6064Z" fill="#FCFBFB"/>
<path d="M172.98 95.6465C182.468 94.8673 186.774 91.9972 190.041 81.9711L192.767 83.1784C189.342 92.7051 185.088 97.3807 173.685 98.6648L172.98 95.6465ZM191.88 80.5881C191.304 78.3217 190.822 77.2955 190.569 76.7412L192.614 76.2857C193.319 77.74 193.795 79.4028 193.971 80.0064L191.88 80.5881ZM188.208 81.115C187.855 79.4028 187.532 78.3985 187.021 77.065L189.089 76.615C189.718 78.1241 189.947 78.7772 190.37 80.6101L188.208 81.115ZM178.62 89.4399C175.7 87.8484 172.781 86.8991 171.547 86.5204L172.698 83.9082C173.638 84.1771 177.386 85.2911 179.777 86.5972L178.62 89.4399ZM180.559 83.6064C178.068 82.3442 175.7 81.4936 173.533 80.8625L174.743 78.2229C178.544 79.3534 180.43 80.2095 181.84 80.8625L180.559 83.6064Z" fill="#FCFBFB"/>
<path d="M215.621 79.9078C215.445 78.898 214.963 77.2133 214.54 76.2584L216.602 75.8853C217.078 77.12 217.307 77.8718 217.659 79.4303L215.621 79.9078ZM212.977 76.0828C213.435 77.142 213.682 77.998 214.035 79.584L213.277 79.6828V79.7322H214.787C214.364 90.6693 208.853 96.8759 199.412 98.8954L197.826 96.2009C201.88 95.4216 210.21 93.7589 211.567 82.4486H195.635V79.7322H211.767C211.544 78.4755 211.315 77.7237 210.815 76.434L212.977 76.0828Z" fill="#FCFBFB"/>
<path d="M235.882 87.4507C235.882 91.4018 235.154 94.4915 232.228 96.703C229.943 98.4426 227.599 98.8871 222.517 99.4414L221.589 96.6756C228.034 96.275 232.916 95.2707 232.916 88.7842V77.8965H235.882V87.4507ZM223.175 92.0055H220.261V78.352H223.175V92.0055Z" fill="#FCFBFB"/>
<path d="M252.088 76.6897C251.888 77.5184 251.659 78.4239 251.054 79.8836H261.905V82.3696H253.545V85.9421H261.276V88.428H253.545V92.028H261.276V94.492H253.545V100.128H250.831V82.3696H249.873C248.187 85.4647 246.83 86.897 246.049 87.753L244.334 85.6128C247.083 82.9513 248.693 78.9562 249.298 76.3879L252.088 76.6897ZM241.243 86.9244H241.19C240.339 88.0329 239.651 88.6585 238.976 89.2622L237.818 86.7762C240.609 84.1586 242.295 81.294 243.405 76.4099L246.072 76.8653C245.72 78.0726 245.144 80.1635 243.905 82.6494V100.128H241.243V86.9244Z" fill="#FCFBFB"/>
<path d="M269.075 83.804H281.359V79.529H269.075V83.804ZM266.59 77.1693H283.803V86.1747H266.59V77.1693ZM278.357 96.4807H283.715V90.521H278.357V96.4807ZM264.187 88.2051H273.975V99.8501H271.56V98.8184H266.59V100.026H264.187V88.2051ZM266.59 96.4807H271.578V90.521H266.59V96.4807ZM275.925 88.2051H286.141V100.026H283.727V98.8184H278.357V100.026H275.925V88.2051Z" fill="#FCFBFB"/>
<path d="M149.005 94.9338C156.613 89.7698 159.18 85.0997 159.579 84.304L148.87 84.293V81.5272H161.312V77.3181H164.115V81.5272H169.819V84.3589H164.138L164.144 99.088H161.312L161.318 86.565C161.318 86.565 159.045 91.696 150.656 97.321L149.005 94.9338Z" fill="#FCFBFB"/>
<path d="M80.939 103.446H287.843V103.764H80.939" fill="#FCFBFB"/>
<path d="M83.2118 38.2256V38.4836L82.7654 38.6262L81.5434 38.5988L80.3215 38.6482L80.2568 38.5329L80.8208 38.2037C81.6374 38.3464 82.3482 37.9677 83.0943 38.1598L83.2118 38.2256Z" fill="#FCFBFB"/>
<path d="M53.8232 63.6909L53.6117 63.9269L53.2122 64.4208L52.9302 64.7226L52.0842 65.3592L51.2206 65.8915C50.6566 66.3634 49.8812 66.7201 48.9647 66.8573L47.8602 66.9726C47.2258 66.9067 46.5267 66.9067 46.0097 66.6433L45.4457 66.4787C44.6996 66.1165 44.4117 65.8531 44.1297 65.0957L44.1062 64.9092H44.0592L44.0122 64.322L43.9417 64.1573L43.8243 62.8732V62.6811H43.8478L43.8712 61.7427L43.9594 61.5561L44.0592 61.3696H44.1062L44.1297 61.0677H44.1474L44.2237 60.8263V59.9647L44.3177 59.8001L44.3589 59.586L44.4117 59.2129H44.4587L44.4822 58.9989H44.5057L44.5762 58.7903V58.6476H44.6232L44.6702 58.3952H44.7113L45.1402 57.6434L45.3987 57.3361C45.9627 57.0123 46.4503 56.5349 47.3433 56.491L48.3772 56.1617C48.9412 56.1891 49.4582 56.3263 50.0222 56.4251L51.1971 56.9574L51.8962 57.6653H51.9432L51.9961 57.808H52.0372L52.2487 58.1812C53.1711 59.8604 53.5823 60.9251 53.7527 62.8732L53.7762 63.0817H53.8232V63.6909ZM55.6032 63.7348L54.9746 63.411L54.7866 63.2683L54.6456 63.1476L54.5516 62.7744H54.4988L54.4341 61.7427H54.4106L54.3636 61.4683L54.2873 61.0403L54.1991 60.3598H54.1522L54.0817 60.0306H54.0582L53.9642 59.7507L53.8702 59.4214L53.6822 58.9056H53.6352L53.5235 58.6257C52.6365 56.6007 52.143 56.1507 49.8812 55.6294L49.1762 55.4154C48.4242 55.3879 47.6017 55.4154 46.9261 55.6513C46.3857 55.5964 46.0978 55.8818 45.7277 56.0684L44.8112 56.6775L44.5469 57.0562L44.4822 57.2428L44.2002 57.594L44.0592 57.7586L43.9887 58.0165H43.9594L43.8478 58.2251V58.2964L43.7773 58.5324H43.7538L43.6833 58.8836H43.6363V58.9989L43.5893 59.4214H43.5423L43.4953 59.9647H43.4483L43.3778 60.2665H43.3543L43.2838 60.6616H43.2603L43.2368 60.947H43.1898V61.183H43.1428L43.1898 61.5781L42.7198 62.308H42.6963L42.7198 62.5439L42.7433 62.6098L43.1898 63.1476H43.1428V63.3177L43.1193 63.8994L43.1898 64.2561L43.2603 64.6293L43.2838 64.7445H43.3308L43.3543 64.9586L43.4483 65.2384L43.5423 65.425L43.9182 65.9463L44.7113 66.6433L45.4633 67.2085C46.2388 67.3951 46.9673 67.8396 47.9072 67.6311C48.4477 67.5597 49.1292 67.5817 49.4817 67.2524L50.1397 67.1372L50.6566 67L51.7552 66.4567L52.5307 65.9134C53.0712 65.639 53.3297 65.1726 53.7762 64.8378L54.1991 64.3439L54.3636 64.2067L55.3271 64.0915L55.6032 63.7348Z" fill="#FCFBFB"/>
<path d="M34.3651 57.313L34.4356 57.335H34.4121V57.3789H34.3886L34.2241 57.9661H34.1771L34.1066 58.3228H34.0831L34.0126 58.7618H33.9891L33.9421 59.0252L33.8716 59.4258H33.8246V59.6343H33.7776L33.6131 59.9417L33.3311 59.777L33.3135 59.5904H33.3546L33.4016 58.9319H33.4486L33.5191 58.6301H33.5426L33.5661 58.3667H33.6131L33.6601 58.0209H33.7071L33.8246 57.6642L33.8716 57.5216L33.9656 57.3789V57.2911L34.0126 57.2472L34.2241 57.1045L34.3651 57.313Z" fill="#FCFBFB"/>
<path d="M34.9281 58.8133L34.9516 58.9121L34.9987 59.1426H34.9516L34.881 59.5212L34.4809 59.631L34.3867 59.1426L34.4809 58.934L34.9281 58.8133Z" fill="#FCFBFB"/>
<path d="M35.7978 59.3067L35.892 59.4494V59.8225L35.7272 59.9597L35.3506 59.6359L35.3741 59.4274L35.4447 59.3725L35.7978 59.3067Z" fill="#FCFBFB"/>
<path d="M37.1124 59.9865L37.1594 60.2444L37.0182 60.4091L36.624 60.2664L36.5239 60.0304L36.5475 59.778H36.9005L37.1124 59.9865Z" fill="#FCFBFB"/>
<path d="M46.5703 62.0258L46.4293 61.8612L46.3823 61.51L46.5468 61.4387L46.6173 61.51L46.6408 61.6252L46.5703 62.0258ZM47.1343 61.4167L47.0344 60.9228H46.9933L46.9463 60.385L46.8053 60.1271L46.4293 59.7704C45.6773 59.5399 45.4423 60.149 45.1192 60.4783L44.9723 60.6649L44.9018 60.9009H44.8783V61.0435L44.8078 61.2521H44.7667L44.7197 62.2124L44.8078 63.0795L44.8783 63.2002L45.3953 63.974L46.3823 63.9246L46.6643 63.76L46.9933 63.2002H47.0344L47.0873 62.9423C47.0344 62.3771 47.2048 61.96 47.1343 61.4167Z" fill="#FCFBFB"/>
<path d="M26.8076 65.684L26.9016 65.8267L27.0837 66.0846L27.1366 66.3371L26.8546 66.6444L25.5151 66.9736L24.769 66.6224L24.8572 66.4358H24.8807L24.957 66.1505H25.004L25.0452 65.8925L25.3036 65.5852L26.4081 65.3767L26.8076 65.684Z" fill="#FCFBFB"/>
<path d="M51.1935 73.9852C50.23 74.0071 49.3194 73.9852 48.3795 73.9852L47.3925 73.8699L47.2045 73.7053L47.3631 73.634L49.478 73.8425C50.0655 73.6779 50.6295 73.9193 51.1935 73.9413V73.9852ZM71.3088 76.2407C70.4452 75.9553 69.4347 75.9553 68.6064 75.6535C67.8133 75.5766 67.0789 75.3462 66.2153 75.412L65.3753 75.2529L64.5763 75.1102C63.9653 74.9949 63.3073 74.9675 62.6493 74.9236C62.0854 74.6382 61.2864 74.8248 60.7694 74.5504C59.8294 74.501 59.1068 74.084 58.1669 74.1937C57.503 74.1718 56.9684 73.9413 56.2634 74.0071C55.5878 73.8206 54.7595 73.9193 54.0839 73.7986L52.8091 73.7053C51.922 73.612 50.982 73.5187 50.0655 73.612C49.2666 73.4693 48.4265 73.3541 47.5276 73.376L46.382 73.2114L46.1705 73.634H46.1235L46.147 73.8699L46.711 74.4791C47.416 74.6602 48.2385 74.9236 49.0316 74.7151C49.666 74.737 50.277 74.8248 50.888 74.759C51.4755 74.8523 52.0865 74.737 52.6504 74.8797L53.796 74.9675C54.548 75.0169 55.2765 74.9455 56.0049 75.0608C56.5689 74.9236 57.0389 75.1815 57.6029 75.2035L59.6179 75.3462C60.3053 75.5547 61.1219 75.4394 61.8034 75.6041C62.4379 75.626 63.0723 75.626 63.6598 75.7687L64.9758 75.884L66.0744 76.098L67.0613 76.2407C67.7663 76.4711 68.6064 76.4492 69.3172 76.6852L70.5333 76.9156L71.5438 76.7949L71.5908 76.7291L71.3088 76.2407Z" fill="#FCFBFB"/>
<path d="M42.7914 76.7759C43.4963 76.9845 44.3834 76.8198 45.0943 77.1271L46.0989 77.3412L46.7334 77.5497C47.3208 77.5497 47.9083 77.7363 48.5134 77.7582L49.0128 78.2796V78.5594C48.1198 78.5101 47.3737 78.1808 46.4984 78.093L45.3704 77.8515C44.031 77.8076 42.9089 77.1271 41.5224 77.407L40.6999 76.9186L40.6118 76.6332L41.4989 76.6771L42.7914 76.7759Z" fill="#FCFBFB"/>
<path d="M70.2777 83.0834C69.6667 83.3193 69.0146 83.0614 68.4271 82.9901C67.5753 82.6608 66.5707 82.4523 65.7012 82.145V82.123L64.5086 81.9364C63.8918 81.7224 63.2162 81.6346 62.5288 81.5358L61.4537 81.2285C60.4903 80.8279 59.2918 80.5041 58.2872 80.1749C57.2944 80.0322 56.4543 79.6864 55.5613 79.423L54.6213 79.0279L54.6448 78.9566C55.1853 78.9072 55.6083 79.1212 56.0783 79.1925C56.7598 79.5218 57.6704 79.6096 58.4223 79.8236L59.1978 79.9169C59.8793 80.109 60.6783 80.1749 61.2892 80.4822C61.8767 80.6194 62.3173 80.9706 62.9812 81.02C63.7801 81.2998 64.6907 81.4645 65.4897 81.7224L66.9702 82.0023C67.5106 82.145 68.1158 82.1889 68.6151 82.4029L69.3906 82.6169L70.3012 82.9626H70.3247L70.2777 83.0834ZM71.5936 83.0395L71.2411 82.6608L70.4422 82.123C69.9252 82.145 69.6432 81.8157 69.1262 81.8651C68.7032 81.6785 68.3507 81.4151 67.7633 81.4425C66.8468 81.1352 65.7482 80.9925 64.7377 80.8059L63.6568 80.3614L62.4642 80.0102L61.5947 79.6864L60.4668 79.3791C59.1508 78.9785 57.7467 78.8358 56.3838 78.4846C55.7963 78.3255 55.0678 78.3694 54.5508 78.1169C52.2773 77.7877 50.1859 77.1785 47.9828 76.7505C47.507 76.4706 46.755 76.5145 46.1969 76.306L45.6564 76.2127C45.1159 76.0975 44.4814 76.07 43.9644 75.9054L43.4005 75.8176L42.1785 75.4609C41.5969 75.1316 40.7979 75.417 40.2986 75.6255L40.2104 75.7408L40.2809 76.0975L40.9096 75.8615L41.826 76.0975C42.6485 76.1907 43.377 76.4048 44.1289 76.6133L44.4579 76.7285L45.2569 77.0084C45.956 77.0798 46.6669 77.0084 47.2485 77.2663C47.9828 77.3651 48.5879 77.6889 49.3634 77.5243L49.6219 77.6889C50.1389 77.7109 50.5383 77.9743 50.9378 78.1389L50.4914 78.3474L50.1389 78.748L50.2094 78.7919C50.838 79.0005 51.5018 79.0938 52.1539 79.3078C52.9529 79.423 53.6344 79.8017 54.4803 79.8456C55.7493 80.2462 57.0359 80.5261 58.2872 80.9267C58.8923 81.1133 59.6678 81.2066 60.2318 81.4645L60.7253 81.6346C61.3539 81.7224 61.7827 82.0736 62.4407 82.1011C63.1398 82.2876 63.8448 82.4523 64.5321 82.6608L65.9832 83.0175C66.8997 83.226 67.8866 83.3907 68.7502 83.6706C69.3612 83.7145 69.9017 83.6486 70.4422 83.8132L71.5936 83.3907V83.0395Z" fill="#FCFBFB"/>
<path d="M25.6564 79.8705L25.7269 80.1065L25.5624 80.2437L24.317 80.1504L24.2935 79.8705L24.4345 79.6839L25.3744 79.5852L25.6564 79.8705Z" fill="#FCFBFB"/>
<path d="M59.9023 88.5006L59.7613 88.4567L58.3983 87.8914L57.1764 87.3042L55.9838 86.7171L54.6443 86.278C54.0334 86.0146 53.3049 85.8719 52.7174 85.5701C52.1064 85.4055 51.5424 85.2189 51.0783 84.8622L50.0914 84.5604C49.5979 84.3738 49.2219 84.0665 48.6814 83.9512L47.9529 83.7152L46.6194 83.1061L46.0319 82.7275L46.1964 82.5409C46.9953 82.6177 47.5358 83.0842 48.3524 83.1774L48.6579 83.2707C49.3629 83.5561 50.1619 83.7152 50.7905 84.0884C51.3368 84.253 51.9184 84.4671 52.3884 84.6756L53.5164 85.2189L54.1979 85.5701C54.7618 85.7786 55.3963 86.0366 55.8604 86.3439L56.9003 86.7664L57.5759 87.0189L58.9858 87.7487L59.9023 88.3798V88.5006ZM62.9278 89.7189L62.2287 89.2085L61.4944 88.5664L60.0198 87.6061C59.3853 87.0957 58.4512 86.8597 57.7874 86.3439L56.8709 85.8994L56.4714 85.7347L56.0073 85.4713C55.4668 85.4494 55.2553 85.0762 54.8088 84.9829L53.8454 84.5878L52.5764 84.1104L51.4778 83.7152L50.5614 83.3695C50.0385 83.0348 49.3629 82.8701 48.7519 82.6396C48.1468 82.5683 47.624 82.3104 47.06 82.1951L46.9953 82.1183L45.5854 82.0744L45.321 82.3543L45.2564 82.6177H45.2329L45.3739 83.0842L46.0789 83.6713C46.9719 83.9787 47.8119 84.4177 48.7108 84.6976L49.9739 85.1915C50.4439 85.5482 51.2135 85.5921 51.7539 85.85C52.2298 86.278 53.0464 86.2451 53.5927 86.6238C54.4563 86.7171 54.9205 87.2603 55.7958 87.3536L55.8604 87.4195L57.0119 87.9353L57.8579 88.2426C58.5863 88.4347 59.2443 88.7091 59.7613 89.1317C60.3018 89.1756 60.7248 89.4609 61.2417 89.5762L61.7293 89.8396L62.8338 89.9493L62.9572 89.7902L62.9278 89.7189Z" fill="#FCFBFB"/>
<path d="M38.5423 93.7056H38.6363L38.7773 93.8922C39.2238 94.1062 39.5939 94.3861 40.1344 94.5013L40.6807 94.9458L40.6572 95.2092L40.6102 95.297L41.1213 95.5824C41.7323 95.6757 42.1318 95.9611 42.6723 96.0708L43.0483 96.3781L43.2363 96.7568L43.3538 96.8446L43.4478 97.0586L43.4948 97.4098H43.5418C44.4406 98.3427 44.94 99.0836 45.8153 99.9891L46.0268 100.34H46.0797C46.6965 101.131 47.8539 101.987 48.1652 102.898L48.4237 103.271C48.7997 103.765 49.3519 104.549 49.5047 105.175L49.5752 106.037L49.6457 106.366H49.6692L49.7867 106.558L49.8807 107.211H49.9218L50.0922 107.584L50.1862 107.776C50.3213 108.259 50.9323 108.44 51.1261 109.252L51.1966 109.395L51.2847 109.741L51.3376 109.933L51.4081 110.893L51.6372 111.458L51.7841 111.689L51.9897 111.952L52.5126 112.369L53.288 113.099L53.3997 113.313L53.4937 114.274H53.4467L53.3762 114.597H53.3527L53.3292 114.927H53.288L53.3057 114.971H53.288V115.02H53.3292L53.3527 116.332L53.4467 117.506L53.5642 118.137L53.5877 118.422H53.6347V118.543L53.664 118.96L53.7052 119.196H53.7287L53.7052 120.277L53.9636 120.601L53.9401 121.002H53.8932L53.8462 121.331H53.7992L53.7757 121.518H53.7522L53.6817 121.819L53.4232 122.061L53.1647 121.94V121.611H53.2117L53.288 121.166L53.3762 120.722V120.579H53.4232L53.3997 120.299L52.8122 119.805L52.7652 119.525H52.8122L52.8886 119.262V118.911H52.9121V118.631H52.9532L52.9121 118.208L52.8122 118L52.7417 117.791L52.6712 117.693L52.6007 117.391H52.5537L52.5361 116.617L52.5126 116.145H52.5537V115.371H52.5126V114.532H52.5537V114.131H52.6007L52.4597 113.379H52.4127L52.3246 113.215L51.8487 112.77L51.3611 112.304L50.8853 111.738L50.8441 111.53H50.7971L50.7736 111.316L50.7208 110.756L50.5386 110.306L50.4858 109.955H50.4446L50.3506 109.439L50.2802 109.296L50.1862 109.11L49.8102 108.457H49.7867L49.6692 108.292L49.4577 107.913L49.3872 107.798L49.2227 107.584H49.1757L49.0817 107.354L48.9877 107.052L48.9642 106.832H48.9172L48.8467 106.223L48.7997 105.949L48.7057 105.032H48.6587L48.5647 104.796L48.3297 104.352L48.1887 104.066H48.1652L48.0477 103.902L47.8421 103.556H47.8186L47.6952 103.342C46.9844 102.343 46.8023 101.871 45.5803 100.971L45.0398 100.296H45.0222L44.8283 99.9891C44.0294 98.7543 43.1481 98.7653 42.6958 97.4537L42.2258 96.7787H42.1847L41.3857 96.3562L40.2107 95.8623L40.1814 95.6537H40.1344L39.9934 95.3464C39.4059 95.3464 39.2943 94.88 38.9183 94.6879L37.8843 94.1501L37.6787 93.541L37.9783 93.4257L38.5423 93.7056Z" fill="#FCFBFB"/>
<path d="M25.3039 114.834L25.2569 115.564H25.2099L25.1864 115.772H25.1629L25.0924 116.568L25.1394 116.661H25.1159L25.0924 117.506H25.0454L24.9514 117.836V117.907L24.6694 118L24.3639 117.885L24.1524 117.506L24.0643 117.391L23.9409 117.155L23.8235 116.848L23.5885 116.546L23.565 116.475L23.001 115.75L22.8894 115.63L22.6485 115.185L22.625 114.977H22.578L22.3724 114.647L22.014 114.554L21.826 114.411L21.5734 114.082L20.7509 113.429C20.187 113.215 19.8815 112.721 19.0825 112.798L18.119 113.078V113.144L16.8794 113.1L16.8559 113.028L16.8794 112.677L17.8429 111.86L18.3305 111.503L19.059 110.987L19.717 110.378L20.4689 109.813L21.0564 109.418C21.5734 109.231 21.9729 108.902 22.5369 108.737L23.001 108.808L23.2653 109.039L23.518 109.302L23.6355 109.538L23.894 109.813L24.0819 110.027L24.1759 110.235L24.2934 110.663H24.3404L24.4403 110.921L24.5519 111.218L24.6459 111.481H24.6929L24.7634 111.805L24.8339 111.947L24.8809 112.112L25.0454 113.05H25.0924L25.1629 114.203H25.1864L25.3039 114.768L25.2569 114.834H25.3039ZM25.7974 114.269L25.7504 113.709L25.6329 113.1H25.6564L25.5624 112.535H25.5154L25.4684 112.09H25.4214L25.3744 111.882L25.3039 111.272L25.2099 111.031H25.1629L25.0219 110.521L24.9514 110.213H24.9044L24.8104 109.813L24.6929 109.604L24.5989 109.396L24.5049 109.204L24.4403 109.138L23.5885 108.408L22.766 107.914C21.873 107.678 21.2855 108.287 20.7744 108.666L20.281 109.039L19.294 109.44L19.0355 109.675L18.7829 109.911L18.4069 110.213L17.931 110.564C17.4199 110.8 17.1791 111.272 16.7149 111.596L16.5035 111.805C16.0452 112.266 15.6457 112.765 15.1875 113.243V113.451H15.2345L15.258 113.594L15.587 113.994C16.5505 114.225 17.4904 113.918 18.3775 113.78L19.388 113.594C19.952 113.451 20.14 113.874 20.5101 114.06L21.0564 114.576L21.685 114.977L21.7144 115.07H21.7614C22.1726 115.641 22.7425 116.151 23.1009 116.76L23.33 117.155H23.377L23.424 117.298L23.518 117.457H23.565L23.6883 117.786H23.7295L23.9644 118.28L24.0819 118.417L25.0454 118.889L25.5154 118.659L25.5624 118.61L25.58 118.396L25.6799 117.364H25.7269V116.947H25.6799V116.217H25.7269V115.937H25.7504L25.768 115.652H25.8209L25.8914 115.185H25.9149L25.9384 114.977H25.9619V114.669L25.7974 114.269Z" fill="#FCFBFB"/>
<path d="M41.8766 128.552L41.7121 128.716L41.1011 128.618C40.3081 128.047 39.7088 127.273 39.0567 126.56L38.9862 126.488C38.6866 126.137 38.0051 125.951 37.4411 126.022L36.2427 125.786C35.6082 125.643 35.1147 125.994 34.5272 125.852L34.3158 125.577L34.2923 125.55H34.3158L34.3392 125.155L34.5037 124.99L34.7916 124.776L35.0912 124.562L36.0077 123.816V123.766L36.2662 123.465L36.9712 122.757L37.4176 122.411C37.8171 121.983 38.2871 121.659 38.9862 121.516L39.7852 121.445L40.5372 122.06L40.6782 122.224L40.7722 122.362L41.0072 122.921H41.0542L41.1246 123.135L41.1951 123.256L41.3126 123.487L41.3831 123.838L41.4301 124.162C41.5888 124.683 41.4008 125.501 41.5888 125.994L41.6651 126.373H41.7121L41.7768 127.449H41.8061L41.8531 128.008L41.9236 128.343L41.8766 128.552ZM42.6521 128.365L42.5522 127.449L42.5111 127.004H42.5346L42.4641 126.697L42.4406 126.604L42.2291 125.687H42.2056V125.577H42.2291V124.847L42.1762 123.887H42.1351L42.0881 123.465L42.0176 123.3L41.9236 123.064H41.8766L41.8296 122.779L41.7591 122.669L41.6651 122.477H41.6416L41.5711 122.34L41.3596 122.126L40.8897 121.538L39.9027 120.721L39.1977 120.578C38.4986 120.435 38.1931 120.929 37.6291 121.072V121.094L36.8772 121.61L35.7022 122.691L35.5847 122.877V122.971L35.4907 123.135L35.3967 123.3L34.6917 124.096L34.0396 124.59L33.7283 125.012L33.6166 125.221L33.2642 125.621V125.951L33.3993 126.137C33.7753 126.538 34.6447 126.746 35.3027 126.538L36.1252 126.56L37.4588 126.604L37.4823 126.351H37.5351L37.5586 126.56H37.5116L37.5821 126.746H37.7231L38.5867 127.026V127.07L38.9862 127.405L39.0861 127.591L39.4856 128.107L39.5737 128.222L39.9497 128.694H39.9967L40.3962 129.068L41.5241 129.369L42.4876 129.205L42.6521 128.903H42.6991V128.365H42.6521Z" fill="#FCFBFB"/>
<path d="M117.177 74.5006L117.201 74.6872L117.365 75.5323L117.436 75.8176L117.483 76.2347H117.53L117.647 76.6792H117.694L117.741 77.1512H117.788L117.835 77.431H117.882L117.906 77.6176L118.117 78.3475H118.141L118.164 78.6274L118.258 79.1652H118.305L118.352 79.5383H119.022L119.004 79.2365H118.957L118.94 79.0225L118.869 78.6274H118.816L118.752 78.3475H118.728L118.634 78.0621L118.564 77.7603L118.517 77.2445H118.47L118.393 76.9646H118.376L118.282 76.6573L118.258 76.3554L118.188 76.2347L118.017 75.417L118 75.1317H117.953L117.906 74.8298L117.835 74.6652L117.741 74.4347H117.694L117.647 74.1274H117.6L117.53 73.7927L117.342 73.3756L117.248 73.0957H117.201L117.083 72.7445L116.989 72.5524L116.895 72.3658L116.778 72.1079H116.754L116.637 71.5921H116.59L116.472 71.1256L116.378 70.8622L116.284 70.6976H116.237L116.125 70.3738L116.026 70.1653L115.861 69.7646L115.767 69.5287H115.726L115.603 69.0348L115.509 68.8262H115.462L115.374 68.497H115.327L115.203 68.0525L115.109 67.8878L115.015 67.7013H114.974L114.851 67.372L114.763 67.0702L114.663 66.8342L114.475 66.3842L114.387 66.1318L114.246 65.797H114.199L114.175 65.5665L114.099 65.3086L113.987 64.8147H113.958L113.887 64.469L113.823 64.3482L113.746 64.1397H113.699L113.635 63.783H113.611L113.558 63.5964L113.494 63.2671L113.4 63.0092H113.347L113.235 62.658L113.135 62.4495L112.759 61.8842L112.483 61.5824L112.084 61.0391L112.131 60.6221L112.195 60.3367H112.225L112.195 60.0349L111.966 59.5135L111.872 59.283H111.825L111.778 59.1404H111.731L111.614 58.9318H111.567L111.52 58.7891H111.473L111.308 58.5093C110.292 57.2306 109.74 56.0343 108.941 54.7337L108.706 54.2837H108.653L108.441 53.9599C107.936 53.3782 107.478 52.6977 106.802 52.2916L106.191 51.8252L105.345 52.1051L105.486 52.4837L106.403 52.9776L107.39 53.7459L107.836 54.1739L108.488 54.7831L108.277 55.0355L107.93 55.3648L107.789 55.502L107.719 55.5788L107.789 55.8093L107.86 55.8861L108.817 56.2099V56.2538H108.864C109.505 56.9727 110.074 57.752 110.65 58.5312L110.744 58.7398H110.791L111.144 59.283V59.541H111.097L111.056 59.8483H111.003L110.744 60.1995L110.697 60.2434L110.721 60.3586L111.026 60.8745L111.543 61.3739L111.567 61.4397L112.248 62.1696L112.366 62.4001H112.413L112.648 62.9434L112.759 63.0806L112.883 63.4318H112.93L113 63.761L113.047 64.1123L113.135 64.5129L113.259 64.7214L113.4 64.9793H113.423L113.494 65.2647H113.535L113.611 65.7311H113.588L113.635 66.0824H113.682L113.746 66.3622L113.823 66.5049L113.887 66.8342L113.987 67.0702L114.122 67.2567L114.246 67.5366H114.287L114.387 67.9317C114.604 68.497 114.933 69.0403 115.186 69.6439L115.25 70.0226H115.297L115.374 70.3518L115.509 70.8622H115.561L115.603 71.1915H115.65L115.767 71.5921H115.814L115.914 71.85L116.002 72.0366L116.125 72.3L116.214 72.5305H116.261L116.501 72.9969L116.637 73.3536L116.731 73.5622H116.778L116.919 73.9353L117.013 74.1494L117.13 74.5006H117.177Z" fill="#FCFBFB"/>
<path d="M45.8201 30.2759V30.5119H45.7731L45.7496 30.7204H45.7261L45.6556 30.9509L45.5146 31.1155L45.1151 31.5436L44.2221 31.2582L43.9637 30.9509L43.8285 30.8192L43.7287 30.5832L43.6582 30.4405L43.5642 30.1113H43.617V29.8753H43.6405L43.6582 29.3594L43.8285 29.1289L44.0577 28.8271L45.0446 28.6076L45.5381 29.0576L45.6791 29.4363H45.7261L45.8436 30.018L45.8671 30.2759H45.8201ZM46.4076 29.7326L46.3371 29.1729L46.2431 29.0137L46.0551 28.7503L46.0316 28.7064L45.8201 28.5198L45.4441 28.1851C45.0446 27.9546 44.4806 28.2125 43.9637 28.0973L43.5407 28.3991L43.3057 28.6844L43.0766 29.1729H43.0531L42.9767 29.4802H42.9297V29.9466H42.9767L43.0531 30.5832H43.0766L43.1941 31.0936L43.2822 31.3295H43.3292L43.4937 31.6808L43.9637 31.7576L45.4206 31.8948L45.6791 31.7027L46.0316 31.2362L46.1256 31.0936V31.0497L46.3841 30.5832H46.4311L46.4076 29.7326Z" fill="#FCFBFB"/>
<path d="M83.6572 34.6607V34.6826L83.2812 34.3314L83.1167 34.1942L82.7172 33.7003L82.6937 33.629L81.9652 32.9924L81.2896 32.4601L80.4671 31.7741L80.3261 31.5875H80.2791L80.2556 31.5217L80.1146 31.3077L81.0781 31.7302C81.9417 32.6686 82.7289 32.9869 83.4927 33.7662L83.6101 34.0954H83.6572L83.7041 34.6168L83.6572 34.6607ZM83.0932 36.96L82.8112 36.8942L82.8582 36.7735L83.2342 36.6527L83.2577 36.6966L83.0932 36.96ZM63.6123 34.3095L63.4655 33.9857L64.1528 33.7442L64.2409 34.1942L63.6123 34.3095ZM58.983 34.6387L58.7715 34.9186L57.7434 35.5552L56.216 36.1149C55.3289 36.2521 54.7179 36.6747 53.913 36.9161L52.7381 37.218L51.428 37.8985L51.1225 38.0576C50.2824 38.2222 49.5246 38.5515 48.896 38.9521L47.439 39.5393C46.2699 40.2747 45.1478 41.0923 44.3371 42.2118L44.0375 42.5136L43.0505 42.2118L42.7862 41.8167L42.698 41.6246L42.3867 41.2734L42.3456 41.1307H42.2986L42.0636 40.807L41.8521 40.4338L41.7346 40.1484L41.5466 39.8247L41.4761 39.5393H41.4291L41.3351 39.3033L41.3116 39.1387H41.2646L41.1941 38.7655L41.1236 38.3869H41.0766L41.0531 38.0576L41.0296 36.96L41.0766 36.6088L41.0296 36.1643V35.3412H41.0531L41.1236 35.0613V34.2162H41.0766V33.6509H41.1236L41.0531 33.157H41.0296L40.9591 32.8113H40.9121V32.3394L41.0766 32.2241L41.6347 31.9607L41.7346 31.8235L41.8756 31.6369V31.2144H41.9461V31.0004H41.9931L42.0107 30.5778H42.0401L42.0107 30.0894L41.8521 29.365L41.5231 28.9863L41.0296 28.8217V28.4485H41.0531L41.0766 28.1906H41.1236L41.1706 27.8833H41.2176L41.7816 26.9723L41.8756 26.7638L41.9931 26.6211L42.1987 26.2644L42.3456 26.1217L42.3867 25.8913H42.4396L42.3691 25.562L42.2986 25.4687L42.1576 25.2602L42.0401 25.0242H42.0636V24.8596H42.0871C42.0401 24.2504 42.1987 23.7126 42.0871 23.1254L42.1341 23.1035L42.1106 22.9827H42.1341L42.0871 22.3516H42.0401L41.9931 22.0004H41.9461L41.8521 21.5779L41.8286 21.3913H41.7816L41.7346 21.0346H41.6876L41.6641 20.5242C41.5231 20.0084 41.6171 19.2346 41.5936 18.598L41.6347 17.8243H41.6641L41.7346 17.6157V16.8145H41.7816L41.8521 16.3481H41.8756V15.9694L41.9696 15.9255L42.1576 16.0682C42.4689 16.7761 42.7862 17.4785 43.215 18.1261L43.3971 18.7133H43.4265L43.5381 19.0919H43.5851L43.685 19.2785L43.7026 19.3773L43.7496 19.7011L43.7731 19.723H43.7496V20.4035H43.7026L43.638 20.9248L43.685 20.9468H43.638L43.685 20.9687H43.638V21.1334H43.685V21.1992H43.638V21.6657H43.6145L43.5851 22.1651H43.5381L43.5851 22.9169H43.5381V23.334H43.497L43.4735 24.201H43.45V24.8376H43.497L43.638 24.9748L44.1256 24.5522V24.4644H44.1491V23.9431L44.2255 23.1474V22.9388H44.249L44.2255 22.3077V21.951H44.249L44.2666 21.5011H44.3136L44.39 21.084V20.5901H44.4135L44.437 19.937H44.4605L44.437 19.9096H44.4605L44.5251 18.6913H44.5486L44.625 18.2688V18.0822H44.6661L44.7366 17.7529H44.7601L44.8306 17.4017H44.8541L44.9246 16.8639H44.9775V16.1121H44.9246V15.7828H44.9775L44.954 15.7609H44.9775L45.0186 15.4316H45.0656L45.1126 15.0529H45.1596L45.2301 14.7511H45.2536L45.3241 14.4987L45.4416 14.3999L45.8646 14.8938L45.9351 15.1298L46.0761 15.3383L46.17 15.5029L46.2875 15.8596H46.311L46.4285 16.0682L46.499 16.3042L46.5695 16.4688L46.64 16.8859H46.6635L46.7575 17.0999L46.828 17.1877L46.922 17.4017L47.0395 17.7529H47.0865L47.1335 18.0163H47.1805L47.2921 18.2907L47.533 18.6694L47.627 18.9273L47.6505 19.1358H47.6975L47.7445 19.5858H47.7915L47.8385 20.2608C47.8796 20.9742 47.9207 21.7974 48.4436 22.3516L48.8725 22.7742C49.2426 23.1693 49.6186 23.548 50.3235 23.6907L51.3105 24.2998L51.992 24.8596L52.1565 25.1614H52.2035L52.2975 25.326C52.697 26.0065 52.9026 26.676 53.3784 27.2742L53.6134 27.5047C54.9529 29.9302 54.4124 28.7284 56.169 30.3912L56.4274 30.7479L56.8739 31.5656H56.8974L57.0149 31.8949L57.1089 32.2241H57.1559L57.2734 32.6467H57.3204L57.4144 32.8333L57.6024 33.157L57.6729 33.2997L57.6964 33.3711L58.983 33.9528L59.1064 34.4247L58.983 34.6387ZM40.7241 31.5875L40.6066 31.401L40.5361 30.5778L40.5831 30.2266H40.6066L40.683 29.9467L40.8651 29.6613L41.0766 29.4089L41.1706 29.5296L41.2881 29.6613L40.8651 30.4132L41.0531 30.6546L41.2646 30.8357L41.3821 30.9125L41.3586 31.1869H41.3116L41.1001 31.4723L40.7241 31.5875ZM6.29191 102.945L7.18488 102.385C7.81348 102.028 8.50083 101.721 9.12944 101.348L9.50543 101.589L9.52892 101.748L9.57592 102.242L9.67579 102.923H9.69342V103.625H9.67579L9.62292 104.492L9.67579 104.706H9.69342L9.78741 105.079L9.81092 105.381H9.85791L9.88141 106.512L9.97541 107.45L10.0694 108.169L10.0929 108.202H10.0694L10.1164 108.268H10.0694L10.0929 108.312H10.0694L10.0224 108.668L9.90491 108.784L9.74042 108.762L9.38793 108.268L9.34093 108.169L8.98844 107.56L8.71233 107.258L8.50083 106.841H8.47146L8.25997 106.512L8.14835 106.413C7.96035 106.045 7.39637 106.012 6.87352 106.045C6.22141 106.111 5.72793 106.342 5.11695 106.484L4.34147 106.863L3.16651 107.401L2.83753 107.329L2.79053 107.143H2.81403L2.8904 106.72L3.00202 106.484L3.09602 106.342V106.155L3.24289 106.012L3.40151 105.595H3.43088L3.4955 105.381C4.8937 103.548 4.38847 104.876 5.63393 103.461L6.29191 102.945ZM70.8383 31.6095L70.9147 31.5656L71.2378 31.3296H72.2013V31.4723L71.9017 31.7083L70.8383 31.851V31.6095ZM108.184 52.6934C107.603 52.1995 107.056 51.6617 106.616 51.0965L106.304 50.1855L105.952 49.9221L105.817 49.6916L105.699 49.2252L104.783 48.0727C104.225 47.6996 103.937 47.0685 103.285 46.7831L102.509 46.1959L102.345 45.9654L102.41 45.8502L102.55 45.6307V45.285L101.569 44.5551L101.07 44.0831L99.8305 43.1283C99.243 42.8649 98.679 42.563 97.974 42.563C97.3396 42.3051 96.5876 42.2338 96.0001 41.8606L94.7605 41.3173L93.5621 40.5984L93.0686 40.2198L92.9981 39.8905L94.314 40.1704L95.113 40.1265L95.16 39.8247L94.9955 39.6106L93.9615 39.3527L92.8806 39.21L91.97 38.5515L92.1815 38.4088L93.7089 38.6722L94.267 38.7655C94.784 38.8808 95.301 39.1167 95.865 39.0509L96.7286 38.8094L96.6111 38.6009C95.4361 38.5076 94.455 37.9917 93.3271 37.8546L92.2226 37.4485L92.7455 37.1905C93.4211 37.1247 94.0085 37.3332 94.6195 37.3332C95.7475 37.4485 96.7286 37.7997 97.7155 38.2003L98.9375 38.7436L99.3135 38.5515V38.1783L99.008 37.9424L97.974 37.218C97.3631 37.3332 97.0634 36.7515 96.429 36.8613C95.4655 36.7515 94.5255 36.4661 93.5209 36.5594L92.346 36.3948L92.1815 36.1863L92.346 36.0436L93.3036 35.9777C93.8205 35.9009 94.3375 35.9009 94.878 35.857C95.677 35.7418 96.6111 35.7857 97.41 35.9284L97.551 35.8351V35.5991C96.476 35.1546 95.254 35.4125 94.079 35.3137L92.6691 35.3905L92.5281 35.2259L93.5621 34.6826C94.173 34.3588 94.972 34.3095 95.536 33.8869C96.1 33.6509 96.7521 33.629 97.3631 33.5851L98.5615 32.7839L98.6555 32.6247L98.9669 32.0814L99.2195 31.6863L99.29 31.2638H99.3135L99.337 30.9564L99.3605 30.6766L99.431 29.9248L99.4545 29.1729L99.525 29.151L99.4545 28.6571L99.525 28.3772V27.4388L99.478 27.3949C99.4545 26.923 99.478 26.2205 99.4545 25.6114L99.572 25.326L99.525 24.8376L99.572 23.965L99.619 23.3559L99.666 23.334C99.666 22.7468 99.6895 22.209 99.713 21.6437L99.666 21.3913C99.5015 20.5791 99.6366 18.3621 99.4545 17.4291L99.3605 16.9078C99.4075 16.392 99.2665 15.9694 99.3135 15.4535L99.2195 15.245L99.2665 14.7292L99.2195 14.7072L99.1725 13.7469L99.102 13.5603L99.008 13.3956V12.8524L98.9669 12.8304L98.8905 12.1444L98.726 11.8207L98.679 11.3487L98.6085 10.8603L98.5615 10.2512V9.05484L98.491 9.03289L98.538 8.98349L98.491 8.96154L98.538 8.63227H98.5145L98.491 7.85851L98.444 7.83106L98.4029 7.11217C98.0974 5.60853 98.0093 4.11037 97.4806 2.65612L97.2749 2.04697C97.0164 1.50369 96.9871 0.686012 96.5641 0.236015L96.1 4.57764e-05L94.8486 0.263451L94.7135 0.521385L94.5255 0.70797L94.3375 1.00979L94.1495 1.21833L93.844 1.71771L93.4211 2.51344L93.0216 3.30916L92.7866 3.68233L92.5281 4.12683L92.3695 4.3189L92.2226 4.52744C91.9935 5.09267 91.4941 5.46584 91.171 5.95974L90.9536 6.31644L90.4895 6.96948C88.874 9.80666 87.3642 12.6548 85.7956 15.481L85.6311 15.7609L85.5371 16.0462C84.5912 19.948 83.0168 22.4834 81.0781 26.012L81.0252 26.2205L80.8137 26.5443L80.9312 26.8516L81.0252 28.1687C81.3777 28.679 81.9182 29.129 82.3177 29.5955L82.8112 30.2046C83.0403 30.9674 83.8275 31.6095 83.7511 32.4601V32.7125L83.1637 32.4381L82.3882 31.8729C81.9417 31.379 81.2896 30.9784 80.6022 30.7205C80.3261 30.49 80.0911 29.9687 79.5507 30.2046L79.3392 30.5778L79.1277 30.7205L78.7987 31.1211C79.4273 31.7302 80.3261 32.1528 81.0017 32.7125L81.9182 33.4643L82.8112 34.4028L83.5866 34.8967L83.6572 35.1271L83.7276 35.4564L83.6572 35.621L83.4692 35.7637L82.9992 35.5277L82.0592 34.8253L81.4306 34.2875C80.9136 33.8869 80.2791 33.6509 79.7387 33.2558L78.8868 33.4204L79.4508 33.9308C79.9736 34.3588 80.6551 34.5674 81.1897 34.968L81.3542 35.2698L81.1016 35.2259C80.0148 35.1271 79.0337 34.7595 77.9292 34.6387C77.3887 34.6607 76.9893 34.3095 76.4253 34.3808C75.7732 34.0515 74.9448 34.2381 74.2927 33.9308L74.1928 33.8211L73.8697 33.6509C73.1413 33.7662 72.4363 33.7442 71.6902 33.7936L71.1908 33.7003L70.3507 33.3436L70.3919 32.8113C70.4858 32.1747 71.3788 32.5698 71.7313 32.1528C72.4657 32.1308 72.9533 31.5875 73.6817 31.5875L73.8697 31.2363L72.7653 31.1211L72.8123 31.0223L73.0238 30.8357L74.1928 30.4132L74.0812 30.2046L73.5877 30.276L72.7183 30.6052C72.0897 30.5778 71.5433 30.6985 70.9147 30.7205L70.4858 30.4625L70.0217 31.0552C69.8631 31.4119 70.2802 31.615 69.9277 32.482L69.7867 33.4863L69.0759 33.6509C68.3298 33.7936 67.5778 33.7442 66.8493 33.9089L65.6333 34.0735L65.4159 33.3436L65.3924 32.9266L65.4688 32.4601L65.5099 32.4381L65.4688 31.4503L65.5099 31.3077L65.4688 31.143L65.5099 30.7205L65.6333 30.5119L65.6803 30.1388L65.7214 29.6943L65.7684 29.365L65.6979 29.1729L65.5804 28.679L65.4453 28.3772L65.4159 27.7681L64.2409 27.0382L63.4948 26.5004C62.972 25.562 63.0542 24.9693 63.3068 23.965L63.4008 23.7565L63.5653 23.4547C63.9237 22.5657 64.2821 21.6986 64.5288 20.7822L64.5934 20.3816L64.8813 19.1578H64.9048L64.9283 18.9273L65.0164 18.4608C65.4746 17.0505 66.0974 15.7389 66.5967 14.356L66.7318 14.0487L66.7788 13.8127C68.1007 10.339 69.1758 9.37861 71.1027 6.54693L71.9428 5.58658L72.5068 5.09268L72.7653 5.32317C73.0766 6.34937 73.2588 7.40302 73.4702 8.4402L73.4232 9.75727L73.3762 9.77922L73.5172 10.0646C73.6582 11.0908 73.7934 12.1115 73.8462 13.1377L73.8697 13.9554C74.0225 14.6249 74.0812 14.8554 74.1928 15.5743L74.2927 15.8267V16.5127L74.3397 16.5346C74.2927 17.1438 74.4337 17.6157 74.3867 18.2249L74.4337 18.5486L74.5453 18.856V19.7011L74.4572 20.0962L74.4337 20.6834L74.3867 20.87L74.3397 21.4572L74.2927 21.5011L74.2692 22.0663L74.2927 22.6535L74.3397 22.7962L74.4337 23.0047L74.4807 23.7126L74.5453 23.9212L74.6452 24.1297L74.6922 24.5303L74.7803 24.7663L74.8332 25.776H74.8097L74.7568 26.2425L74.3397 27.1809C73.8932 27.7187 73.2353 28.2345 72.3658 28.2126L71.1497 28.7559L70.5387 29.3156L70.4858 29.6394L70.6033 29.804L70.6268 30.1607L70.8912 30.3034C71.4023 30.1607 71.9428 30.0894 72.4657 29.9248L73.2353 29.7821L74.0812 29.6394L72.8828 29.2882L72.3658 29.3156L72.3188 29.1729L73.4937 28.5857C74.0107 28.2784 74.5042 27.9547 74.9448 27.5595L75.1857 27.1589C75.6322 26.7309 75.4853 25.776 75.4677 25.2163V24.8157L75.3972 24.4864L75.2973 24.1297V22.3736L75.2562 22.3516L75.1328 21.973V20.5462L75.2092 20.5242V20.0084L75.2562 19.1358L75.2092 18.8779L75.0917 18.5267V16.9791L75.1328 16.9572L75.0917 16.7432C75.2151 15.4536 74.8332 14.2298 74.7803 12.9731L74.7333 12.6219C74.4278 11.7877 74.7274 11.5188 74.3867 10.8603L74.3397 10.2951L74.2222 9.9658C74.2927 9.45544 74.1517 9.03288 74.1928 8.49508L74.1282 8.07253C73.9461 5.93779 73.5701 6.05303 73.2822 4.52744L73.1648 4.22561L72.1543 4.20366L71.6667 4.71402L70.8912 5.39999L70.8148 5.4878L70.7737 5.75121L70.6268 5.9817L70.3037 6.38229L69.6634 7.34266L69.1758 7.90789C68.2652 8.6652 68.2005 9.58166 67.2958 10.6024L67.2488 10.8603L67.1078 11.1621C66.6261 12.6658 65.7743 13.9499 65.4159 15.3603L65.1574 15.8596L65.1163 16.1121L64.9694 16.4413L64.8578 16.5785C64.3467 18.3072 63.771 18.7407 63.5653 20.7328L63.4948 21.2267L63.4008 21.3913C63.3303 22.7742 61.8499 24.6071 62.4374 25.8913L62.5549 26.1766L62.6959 26.429L63.0014 26.9229C63.3538 27.4827 64.1293 27.5321 64.6698 27.9327L65.1574 28.3114L64.7403 29.0796L64.0294 28.7998C63.3068 28.679 62.8134 28.1906 62.2259 27.9053L60.8864 27.4827L60.3753 27.6967L60.9863 28.1906C61.5503 28.2345 62.0849 28.4211 62.4374 28.7778L61.9439 29.2223L61.5914 29.6394L62.9074 29.7162C63.5183 29.8809 64.2938 29.7601 64.7814 30.2266L64.6698 30.5778L63.1893 30.6985L62.4902 30.9345L62.3904 31.0991L63.254 31.0552L64.5523 31.0991L64.6169 31.5875L64.3173 31.8949C63.7298 32.0156 63.1188 32.0814 62.5549 32.2241L62.3904 32.5259L62.7194 32.6247L64.0823 32.2461L64.5699 32.3613V32.8333L64.1058 33.2997L63.0484 33.7936L61.7383 34.2875L60.7748 34.8034L60.2343 34.8473L60.2754 34.3314L60.3224 34.0515L60.2519 33.7442L60.1638 33.4863L59.4823 33.157L58.2839 32.9485L58.2369 32.7345L58.1429 32.4107L57.7199 31.3296L57.6494 31.2144L57.4379 30.8357C57.2264 30.1388 56.6154 29.7382 56.122 29.2443L55.229 28.5857C53.7133 26.7693 53.6722 25.8858 52.415 24.223L51.287 23.2626C50.394 22.9608 49.5246 22.5602 48.9664 21.8797L48.9195 21.5779L48.8725 21.2706L48.755 20.9687L48.7315 20.2608L48.6081 19.8657V19.7944L48.6551 19.3005L48.567 19.07L48.4671 18.8779L48.379 18.5047L48.2556 18.3621L48.1205 17.8956L48.003 17.7529L47.8561 17.4017L47.6035 17.0285L47.4801 16.6554L47.4625 16.3481L47.3215 16.1121L46.922 15.1298L46.499 14.4438L46.3815 14.12L46.2875 13.8127L46.17 13.6042L45.9821 13.1103L45.8646 12.9292L45.3535 12.8085L45.0186 13.1103C44.4076 13.9444 44.2842 16.9188 44.061 17.6596L43.826 17.7529L43.5146 17.2426C43.1034 16.3974 42.8097 15.7444 42.4865 14.8938L41.9696 14.2572L41.5936 14.3341L41.4761 14.6359L41.3821 15.0859L41.3116 15.3877L41.2176 15.9255L41.1236 16.2548L41.0531 17.3523L41.0061 17.3798V17.8956L40.9121 18.3621V19.487L40.9591 19.509L40.9121 19.6517V20.5901L40.9591 20.6175L41.0061 21.3419C41.1706 21.8578 41.3233 22.3462 41.4761 22.8675L41.4056 23.3559C41.4761 23.965 41.3351 24.4864 41.3821 25.0955L41.4291 25.4687H41.4467V26.1766C40.072 28.4485 40.495 27.8065 40.1366 29.7162L40.119 30.4406L40.0426 30.49L40.119 30.8577C40.1308 31.604 40.3129 32.493 40.3951 33.2997L40.495 33.6784C40.495 34.2162 40.4421 34.518 40.4656 35.0832L40.3951 35.1052L40.3481 35.4564C40.1308 36.554 40.0485 37.6735 40.495 38.7436L40.683 39.5173H40.7006L40.8416 40.0112L41.2646 40.9442L41.5231 41.438L41.9226 42.1185L41.3116 42.799L40.7946 43.3368L40.4186 43.2435L40.3951 43.3149L40.2541 43.2435L39.7606 43.6386L39.6431 43.2435L39.696 42.7551L39.3435 42.563L38.9205 43.1502L38.6562 43.7594L38.5152 44.0173C37.5458 44.7142 37.2169 46.1026 36.4531 47.0685L36.1946 47.3923L36.1006 47.6557C35.7952 48.3801 35.378 49.0331 35.0256 49.7355L34.6496 50.3008L34.4851 50.7288L34.3147 50.9374C33.0222 52.7044 32.2291 54.7404 31.9002 56.9135L31.7827 57.2428L31.7357 57.9233H31.7122L31.6828 58.1592L31.6417 58.3897L31.5477 58.6037L31.5007 59.2129L31.3832 59.4214L30.6547 60.3818L29.9967 60.7385L29.1038 61.1116C27.9523 61.2982 26.8772 61.7208 25.8197 62.072L25.3968 62.3738C24.6448 62.4013 24.2747 62.9391 23.7753 63.2903V63.3616L23.6343 63.5756L23.5932 63.9214L23.4228 64.2287L23.3817 64.9586V65.4031L23.4228 65.7104L23.4933 66.0561L23.4698 66.6927L23.2348 67.1646L22.7942 68.1689L22.6297 68.8L22.5827 68.8988L22.2067 69.6286L21.8954 69.5738L21.1023 69.5957V69.5738L20.4208 69.2719L19.5043 69.4585L19.5513 69.7878L19.8803 69.9524L21.1669 70.3036L22.1069 70.7262L22.2537 70.9841L22.3712 71.4067V72.1804L22.3184 72.3945L22.1597 72.603C21.4548 72.6908 20.7968 72.8829 20.1388 73.0255C19.2928 73.2341 18.5879 73.6347 17.7654 73.8871L16.4494 74.4524L16.4318 74.7597L16.5728 75.0889L17.7654 74.7597L19.2282 74.1066C20.1623 73.8652 21.0083 73.3768 22.0188 73.278L22.1597 73.492L22.2302 73.7774L22.1597 74.1286L22.0657 74.3371L22.0188 74.595L21.8954 74.7816L21.8073 75.1328L21.7603 75.4895L21.6663 75.6487L21.5429 75.9999L20.6088 76.609L20.2563 77.081L21.5018 76.9603L22.0188 77.4322L22.0657 77.9481L22.1597 78.184L22.2537 78.4639L22.3712 78.6285L22.4182 79.117L22.5064 79.331L22.5827 79.6602L22.6709 79.8688L22.7707 80.1541L22.9352 80.3901L22.8177 80.7194C22.3477 80.9279 21.8308 81.1364 21.2668 81.1858L20.3973 81.4877L20.0448 81.773L19.9508 82.1462L20.0448 82.7553L20.1153 82.9639L20.0448 82.9858L19.5513 83.6224L19.1518 84.4236L18.8287 84.9559L18.1649 85.8065L17.4129 86.1797L16.3613 87.1126L16.0088 87.5626L15.9383 87.7492L15.8443 87.9632L15.6975 88.1937L14.7869 88.9236L14.4579 89.4888C14.2229 90.1638 13.4063 90.4217 13.0538 91.0089C12.8834 91.5248 12.1785 91.5687 11.9435 92.0187C11.3384 92.3699 10.9624 92.8857 10.4219 93.2808L9.55242 93.9174L8.71233 94.2906L9.05894 94.8558L8.54783 95.5143C7.98385 95.8381 7.58437 96.2387 7.23188 96.7107L6.83239 97.1771L6.87352 97.3857L7.06151 97.9729L6.97338 98.1155L6.12154 99.0265L5.86892 99.3558L5.46944 99.9649L5.39894 100.294L5.51644 100.481L5.46944 100.881L4.97596 101.534L4.69396 101.962L4.43547 102.308L4.41197 102.637L4.29448 103.06L4.15348 103.483L3.26639 104.443L3.0784 104.706L2.97852 104.937L2.27942 105.875L2.01505 106.44L1.97393 106.578L1.90343 106.929L1.80356 107.165L1.71544 107.494L1.63907 108.081L1.61557 108.921L1.55095 109.064L1.63907 109.371L1.05159 110.051C0.669727 111.242 0.546354 110.979 0.187991 111.807L0.276115 111.95C0.675602 112.614 0.387735 114.359 0.0234975 115.045L0 115.49L0.234992 115.632L0.446486 115.281L0.540482 114.859L0.587477 114.48L0.704975 114.293L0.798971 114.041L0.892966 113.662L0.845971 112.817L0.939967 112.559L1.05159 112.252L1.19846 111.972L1.50395 111.599V111.27L1.47457 110.968L1.55095 110.754L2.36754 109.815L2.8904 109.3L3.02552 109.086V108.998L2.62603 108.361L2.76703 108.268C3.37801 108.081 3.94199 107.703 4.62347 107.659C5.28144 107.373 6.00992 106.742 6.80889 107.143L8.00147 108.032L8.25997 108.389L8.35984 108.641L8.44796 108.877L9.31743 109.651L10.1634 109.536L10.5864 108.899L10.6804 108.575L10.7744 108.268L10.8919 108.01V106.44L10.8155 106.012L10.7744 105.689L10.7274 105.101H10.6804V101.962L10.5864 101.677L10.4689 101.419L10.4219 101.189L10.0459 100.552L8.63595 100.81L8.40096 101.002L7.18488 101.611C6.68552 101.842 6.33303 102.336 5.77493 102.363L5.98642 101.798L6.17441 101.326L6.26841 100.975L6.30953 100.53C6.83239 100.228 7.20838 99.7564 7.74886 99.4546L7.83698 99.2405L7.32587 99.1911L6.97338 99.2625L7.10851 99.054L8.00147 98.1155C8.68295 97.8082 8.94144 97.243 9.45843 96.8259L9.64642 96.1674L9.05894 96.1235V96.0028C11.1739 94.2906 10.9506 93.193 14.0819 91.3162L15.3509 90.1199C15.8678 90.0979 15.9383 89.604 16.3378 89.4339C17.0604 88.6162 18.3117 88.4077 19.2693 87.7492C20.1388 87.2553 21.1258 87.0248 22.1597 86.8382L23.7107 86.4596L24.4803 86.3169L24.5273 86.8382L24.8857 86.948C25.6083 87.3266 26.4542 87.6559 27.3648 87.5846C27.8877 87.398 28.7278 87.3047 29.1273 87.6998C29.7147 87.8425 30.0202 88.3089 30.6547 88.3858L31.6417 88.6931L32.6051 89.39L33.3747 90.0211C33.7977 90.4711 34.5027 90.6303 34.8787 91.1516L35.801 91.7113L36.6176 92.1339C37.2051 92.3918 37.6046 92.8638 38.2391 93.0723L38.7326 92.9735L38.4271 92.3699L37.2521 91.8046L35.801 90.9595C35.1842 90.6303 34.5732 90.2351 34.1091 89.8126L32.9987 88.9236L31.7827 88.1004C31.1717 88.0071 30.6312 87.6778 30.0437 87.5132C29.5796 87.376 29.2036 87.0687 28.6808 86.9754L27.5117 86.926L26.4777 86.5035C25.9372 86.6242 25.9137 86.059 25.4438 85.9931C24.8563 85.9437 24.2218 85.8724 23.6108 85.9437C22.9822 85.8724 22.5592 86.4376 21.9424 86.1797C21.4313 86.2016 20.9848 86.4376 20.4913 86.4596C19.8333 86.6955 19.2282 86.926 18.6642 87.3047L17.7478 87.7492L16.7608 87.9632L16.8078 87.6559C17.1603 87.0467 17.9358 86.8602 18.4469 86.3388L18.6642 86.3169L19.2928 85.6419L19.3868 85.3565L19.5043 85.1974L19.9273 84.7254L20.5618 83.8584L21.4078 83.1065L21.6193 82.6346L21.9424 82.1901L22.0657 81.773C22.5064 81.3944 23.1937 81.4163 23.7342 81.2297L23.8458 81.0431L23.4933 80.5273L23.7107 79.8907C23.1996 78.1127 22.2596 77.3005 22.5064 75.0396L22.6297 74.8255L22.6709 74.5018L22.7707 74.2438L22.8177 73.942L22.9352 73.6786V73.1682L23.0292 72.7676L23.1232 72.0378L23.2348 71.8073V71.264L23.1232 70.9841L23.0292 70.6548L23.0703 70.3695L23.1702 69.925L23.1467 69.6506H23.1702L23.1937 69.3652C23.8634 68.2732 23.4992 68.4158 23.9222 67.6311L24.5097 66.9506L24.3452 66.4787L24.1983 65.9189L24.1337 64.6951L24.7153 63.3891L25.5378 63.1805L26.5893 63.7348C27.2767 63.8555 27.6057 64.4647 28.0757 64.772L28.1932 64.9586L28.5398 65.4964L28.7043 65.8915L28.6396 65.9903V66.6927L28.8511 66.9067L29.4562 66.7201V65.7543L29.3152 65.4031L29.2036 65.0957L28.9921 64.7226C28.6161 64.3 28.2167 63.8555 27.6997 63.5482L27.3648 63.2903L26.4307 62.7086L27.3472 62.1653L27.6997 62.286L27.7408 62.5165C28.2872 63.0598 28.8041 62.1433 29.4562 62.308L29.6207 62.6153V62.8732L30.1142 62.8952L31.6828 62.9884C32.3466 63.3397 31.3127 63.4549 31.4302 63.8775L32.7696 64.2781L32.6991 64.4866L32.5581 64.6951L32.6051 64.9092L33.3982 65.1726L33.6626 64.9586L33.0457 64.3988L33.1691 63.9762L33.2102 63.9488L33.1691 63.7897L32.3466 62.7305L32.1117 62.4287L31.3362 62.1653L30.7722 61.7427L30.8662 61.0897L32.1117 60.1513L32.4583 60.3159L32.8108 60.1952L32.8577 60.058L32.9106 59.2568L32.9987 59.1196L33.0457 58.7245L33.1691 58.2964L33.2102 57.9507L33.3101 57.808L33.3747 57.4294L33.4746 57.1989L33.3982 56.8202L33.0457 57.0562L32.9576 57.2647L32.9106 57.594L32.8108 57.8519L32.6051 58.697L32.4876 58.9989L32.4583 58.7903L32.5581 58.5104V57.8958L32.6051 57.8739L32.6463 56.9135L32.7461 56.6336C33.0457 55.6019 33.0399 54.4276 33.7331 53.5605L34.1502 52.8087L34.6202 51.755C35.5837 50.2075 36.5354 47.974 37.5047 46.5252L37.8631 45.8941L38.1686 45.6087L38.1451 46.1959L38.4271 46.4045L38.7032 45.8941L39.0557 45.0984L39.1967 44.835L39.367 44.6045L39.7195 44.4892L40.0661 44.8569L40.6066 44.6264L41.4761 43.5728L41.5701 43.4301L41.6641 43.2216L42.3456 42.5905L43.685 42.7551L43.7496 42.8649L43.873 43.3149L44.6015 43.0075C44.9775 42.4697 45.5121 42.0472 45.9351 41.5533C46.687 40.9442 47.3215 40.2911 48.2321 39.8247L48.4671 39.8686L49.3189 39.7478C49.9064 39.2375 50.7994 39.0509 51.4515 38.6503C51.9215 38.2497 52.65 38.107 53.2374 37.8271C53.7544 37.5911 54.3654 37.5911 54.853 37.3606C55.746 37.1466 56.4275 36.6308 57.2499 36.3729C57.9314 36.2521 58.4249 35.8076 59.1475 35.8351C59.8113 35.7198 60.4223 35.4125 61.0979 35.3412C61.7383 35.2698 62.3199 34.968 62.9544 35.0613L63.8414 34.8473C64.4054 34.5948 65.0458 34.6826 65.6803 34.6168C66.1914 34.4521 66.8082 34.4741 67.3428 34.3808C68.0478 34.1448 68.6823 34.5674 69.3873 34.496C71.4023 34.2875 73.4232 34.6168 75.3208 34.946C76.0963 35.1546 76.9893 35.0613 77.7647 35.2918L78.3522 35.3686L79.0337 35.4564L79.3862 35.9009L79.3157 36.1424L80.0148 36.7515L79.1747 37.1466L79.1512 37.3826C79.6388 37.6899 80.3496 37.4978 80.9312 37.5472L81.9887 37.6131L83.0462 37.5692L83.3987 38.0356L83.8216 38.107L83.9626 37.8985L84.0096 37.5472L84.1036 37.004C84.5384 35.7692 84.3269 34.0735 84.5736 32.9485V31.8949C81.5657 25.9132 80.6257 29.2333 83.7981 23.0815L83.9626 22.6809C83.9979 21.4901 85.261 20.2773 85.2727 19.3005L85.3491 18.856L85.5136 18.5761L85.5841 18.1535H85.6311L85.6487 17.9614C87.6403 12.331 91.7879 6.62376 94.8075 1.50368L95.4655 0.68602L96.3761 0.779305L96.476 1.97015L96.523 1.9921L96.6405 2.3927L96.7756 2.70001L96.8754 2.936L96.9871 3.28721L97.0399 3.70976L97.1281 4.20366L97.1986 4.83475L97.2926 5.18597V5.77316L97.3396 5.81706L97.41 6.68412H97.4394L97.4806 7.4579C97.6392 7.7707 97.7567 8.57191 97.9035 8.77496V9.41154L97.9505 9.43348V11.4255L98.0034 11.4695L98.0445 11.7768L98.1385 12.0127L98.2149 12.342L98.303 12.9292V13.7688L98.4029 14.0048L98.4675 14.4987L98.5615 14.8718L98.6085 15.3603L98.726 15.5029L98.6555 15.6401L98.726 16.1615L98.7495 17.5444L98.82 17.5663L98.867 18.856L98.9375 19.3773H98.9669L98.914 19.4431C98.8905 20.5517 99.2019 21.7151 99.102 22.4175L99.0785 23.3834L99.008 23.4053V23.9431L98.914 24.3218V24.9748L98.867 24.9967L98.82 25.776L98.867 26.5004V27.8394L98.7495 28.1467L98.82 28.4924V29.1071L98.7495 29.151V29.9248L98.726 30.4406L98.6085 30.7205L98.5615 31.1869L98.4675 31.5217L98.303 32.0156C97.8565 32.6686 96.9401 32.9046 96.053 32.9266C95.536 32.9046 95.1835 33.2778 94.7135 33.3436C94.173 33.5851 93.5386 33.629 92.9335 33.7662C92.3225 33.9857 91.8055 34.4247 91.4706 34.9186L91.359 35.1765C91.4941 38.1454 89.9432 39.4131 89.9256 40.9935L90.1782 41.2076L90.795 40.785L90.9067 40.5984L91.0065 40.3131L91.8466 40.5216C92.5281 40.6643 93.0451 41.0155 93.5386 41.3941C94.5255 41.9045 95.4361 42.5905 96.5641 42.8429L96.9871 43.0075C97.5275 43.0789 97.9505 43.3643 98.491 43.4521C99.196 43.9021 100.13 44.0831 100.694 44.6978L100.629 44.9996L99.8305 45.1203L99.431 45.4002L100.465 45.9654L102.11 46.8325C103.02 47.1124 103.661 47.7435 104.172 48.3526L104.289 48.6599L104.101 48.7587C103.631 48.5941 103.114 48.3801 102.574 48.4294L102.11 48.7313L102.762 49.0605C103.678 49.2471 104.548 49.6697 105.135 50.2294L106.052 51.0745L106.892 51.8977L107.526 52.5508L108.09 53.1379H108.372L108.184 52.6934Z" fill="#FCFBFB"/>
<path d="M45.0886 29.443L45.1826 29.5857L45.2061 30.2168L45.2296 30.5899L45.1826 30.6393L44.5952 30.804L44.3837 30.6613L44.2662 30.4253L44.0547 29.7723L44.2251 29.5857V29.5088L44.4777 29.3991L45.0886 29.443Z" fill="#FCFBFB"/>
</svg>
